<svg width="60" height="19" viewBox="0 0 60 19" fill="none" xmlns="http://www.w3.org/2000/svg">
<g clip-path="url(#clip0_1009_2)">
<path d="M31.6224 4.7035C31.6224 5.37815 31.0788 5.9214 30.4041 5.9214C29.7295 5.9214 29.1862 5.37815 29.1862 4.7035C29.1862 4.02884 29.711 3.4856 30.4041 3.4856C31.0979 3.50432 31.6224 4.04775 31.6224 4.7035ZM26.6003 7.15839V7.45828C26.6003 7.45828 26.0196 6.70837 24.7828 6.70837C22.7405 6.70837 21.1475 8.26378 21.1475 10.4186C21.1475 12.5549 22.7218 14.1288 24.7828 14.1288C26.0384 14.1288 26.6003 13.3606 26.6003 13.3606V13.679C26.6003 13.8289 26.713 13.9411 26.8628 13.9411H28.3804V6.89519H26.8628C26.713 6.89576 26.6003 7.02717 26.6003 7.15839ZM26.6003 11.6741C26.3195 12.0865 25.7572 12.4426 25.0827 12.4426C23.8835 12.4426 22.9652 11.693 22.9652 10.4186C22.9652 9.14436 23.8835 8.39482 25.0827 8.39482C25.7387 8.39482 26.3382 8.76959 26.6003 9.16308V11.6741ZM29.5049 6.89575H31.3036V13.9416H29.5049V6.89575ZM56.3759 6.70819C55.1391 6.70819 54.5581 7.45809 54.5581 7.45809V3.50432H52.7593V13.9416H54.2773C54.4272 13.9416 54.5394 13.8104 54.5394 13.6792V13.3608C54.5394 13.3608 55.1204 14.129 56.3568 14.129C58.3995 14.129 59.9922 12.5554 59.9922 10.4192C59.9922 8.28288 58.3995 6.70819 56.3759 6.70819ZM56.0761 12.4237C55.3825 12.4237 54.8392 12.068 54.5581 11.6554V9.14435C54.8392 8.76959 55.4388 8.3761 56.0761 8.3761C57.2752 8.3761 58.1934 9.12563 58.1934 10.3999C58.1934 11.6741 57.2754 12.4237 56.0761 12.4237ZM51.8226 9.76304V13.9604H50.0234V9.96895C50.0234 8.8074 49.6487 8.33866 48.6374 8.33866C48.0942 8.33866 47.5318 8.61983 47.1752 9.03222V13.9418H45.3768V6.89594H46.8005C46.9504 6.89594 47.0629 7.02717 47.0629 7.15839V7.45828C47.5876 6.91466 48.2808 6.70837 48.974 6.70837C49.7612 6.70837 50.4171 6.93357 50.9418 7.38321C51.5787 7.90793 51.8226 8.5824 51.8226 9.76304ZM41.0101 6.70819C39.7737 6.70819 39.1926 7.45809 39.1926 7.45809V3.50432H37.3939V13.9416H38.9115C39.0614 13.9416 39.1739 13.8104 39.1739 13.6792V13.3608C39.1739 13.3608 39.755 14.129 40.9914 14.129C43.0341 14.129 44.6268 12.5554 44.6268 10.4192C44.6455 8.28269 43.0528 6.70819 41.0101 6.70819ZM40.7102 12.4237C40.0171 12.4237 39.4738 12.068 39.1926 11.6554V9.14435C39.4738 8.76959 40.0734 8.3761 40.7102 8.3761C41.9098 8.3761 42.8278 9.12563 42.8278 10.3999C42.8278 11.6741 41.9098 12.4237 40.7102 12.4237ZM35.8385 6.70819C36.3817 6.70819 36.6629 6.80216 36.6629 6.80216V8.4697C36.6629 8.4697 35.1638 7.96371 34.2271 9.03204V13.9602H32.4279V6.89575H33.9459C34.0958 6.89575 34.208 7.02698 34.208 7.1582V7.45809C34.5457 7.06442 35.2765 6.70819 35.8385 6.70819ZM17.1564 13.3044C17.0628 13.0796 16.9691 12.8361 16.8755 12.6298C16.7253 12.2926 16.5754 11.9738 16.4445 11.6741L16.4258 11.6554C15.1327 8.84447 13.7463 5.99646 12.2845 3.1859L12.2283 3.0732C12.0746 2.78164 11.9247 2.48803 11.7789 2.19245C11.5913 1.85493 11.4041 1.49926 11.1042 1.16174C10.5046 0.41221 9.64258 -0.000183105 8.72457 -0.000183105C7.78746 -0.000183105 6.94433 0.412212 6.32621 1.12412C6.04504 1.46126 5.83875 1.81731 5.65155 2.15482C5.50531 2.45022 5.35548 2.74383 5.2021 3.03558L5.14575 3.14827C3.70284 5.95883 2.29756 8.80703 1.00459 11.6178L0.98569 11.655C0.854652 11.9553 0.704519 12.2737 0.554575 12.6107C0.460977 12.817 0.367379 13.0418 0.273781 13.2853C0.030051 13.9785 -0.0450183 14.6344 0.0489542 15.3093C0.255057 16.7148 1.19179 17.8948 2.48494 18.4199C2.97221 18.6262 3.4782 18.7198 4.00273 18.7198C4.15267 18.7198 4.33987 18.7011 4.49 18.6822C5.1085 18.6073 5.74553 18.4014 6.36402 18.0453C7.13228 17.6142 7.86309 16.9961 8.6875 16.0966C9.51191 16.9961 10.2615 17.6142 11.011 18.0453C11.6297 18.4014 12.2665 18.6073 12.8848 18.6822C13.0348 18.7013 13.2223 18.7198 13.3723 18.7198C13.897 18.7198 14.4215 18.6262 14.8899 18.4199C16.2018 17.8948 17.1198 16.696 17.326 15.3093C17.4749 14.6535 17.4 13.998 17.1564 13.3044ZM8.70566 14.2788C7.69368 13.0045 7.03774 11.8053 6.81311 10.7937C6.71951 10.3626 6.7006 9.98786 6.75695 9.65053C6.7942 9.35065 6.90689 9.08819 7.05683 8.86337C7.41288 8.35775 8.01248 8.03896 8.70585 8.03896C9.39941 8.03896 10.0177 8.33885 10.355 8.86337C10.505 9.08819 10.6173 9.35083 10.6551 9.65053C10.7111 9.98805 10.6924 10.3813 10.5988 10.7937C10.3732 11.7866 9.71727 12.986 8.70566 14.2788ZM16.1819 15.1595C16.0509 16.1339 15.3949 16.9774 14.4769 17.3522C14.0273 17.5394 13.5398 17.5957 13.0529 17.5394C12.5846 17.483 12.1158 17.3331 11.6289 17.0523C10.9543 16.6771 10.2798 16.0966 9.49264 15.2344C10.7293 13.7168 11.4788 12.3299 11.76 11.0934C11.8912 10.5124 11.9101 9.98786 11.8536 9.5004C11.7789 9.03204 11.61 8.60092 11.3477 8.22616C10.7665 7.38265 9.79196 6.89575 8.70547 6.89575C7.61899 6.89575 6.64444 7.40174 6.06357 8.22616C5.80131 8.60092 5.63246 9.03204 5.55758 9.5004C5.4827 9.98786 5.50123 10.5311 5.65118 11.0934C5.93216 12.3299 6.70042 13.7353 7.91832 15.2531C7.15006 16.1152 6.45668 16.6962 5.78203 17.071C5.29476 17.3522 4.82658 17.5021 4.35822 17.5581C3.85241 17.6144 3.36495 17.5394 2.93403 17.3709C2.01602 16.9961 1.36008 16.1526 1.22904 15.1783C1.17288 14.7099 1.21014 14.2415 1.39771 13.7168C1.45368 13.5292 1.54765 13.342 1.64125 13.1172C1.77247 12.8173 1.92204 12.4985 2.07217 12.1801L2.09108 12.1429C3.38386 9.35065 4.77042 6.50245 6.21333 3.72933L6.26949 3.61664C6.41962 3.33584 6.56957 3.03595 6.71932 2.75479C6.86927 2.4549 7.03774 2.17373 7.24403 1.93C7.63752 1.48073 8.16204 1.23681 8.7431 1.23681C9.32416 1.23681 9.84868 1.48073 10.2422 1.93C10.4485 2.17429 10.6169 2.45546 10.7669 2.75479C10.917 3.03595 11.067 3.33584 11.2165 3.61664L11.2729 3.72933C12.6938 6.51398 14.0619 9.32523 15.3766 12.1616V12.1803C15.5267 12.4806 15.6578 12.8175 15.8077 13.1178C15.9013 13.3422 15.9951 13.5294 16.0512 13.717C16.2008 14.2037 16.257 14.6725 16.1819 15.1595Z" fill="#4D4D4D"/>
</g>
<defs>
<clipPath id="clip0_1009_2">
<rect width="60" height="18.72" fill="white"/>
</clipPath>
</defs>
</svg>
