<svg width="60" height="17" viewBox="0 0 60 17" fill="none" xmlns="http://www.w3.org/2000/svg">
<path fill-rule="evenodd" clip-rule="evenodd" d="M30.5202 2.077H28.8098V13.5005C29.5811 13.7685 30.5538 14.003 31.6941 14.003C34.5448 14.003 36.1882 12.328 36.1882 9.8825C36.1882 7.437 34.5113 5.9965 32.2977 5.9965C31.627 5.9965 30.9227 6.1975 30.5538 6.365L30.5202 2.077ZM18.2452 2.747C17.675 2.747 17.172 3.216 17.172 3.7855C17.172 4.3885 17.675 4.891 18.2452 4.891C18.8154 4.891 19.3184 4.422 19.3184 3.7855C19.3184 3.216 18.8154 2.747 18.2452 2.747ZM7.58002 12.2945C7.2111 12.4285 6.80864 12.529 6.37264 12.529C4.86342 12.529 3.82373 11.5575 3.82373 10.05C3.82373 8.442 4.89696 7.571 6.30557 7.571C6.70803 7.571 7.11049 7.638 7.51295 7.8055C7.68064 7.37 7.94894 6.9345 8.25079 6.566C7.61356 6.231 6.97633 6.0635 6.17141 6.0635C3.92435 6.0635 2.11328 7.6045 2.11328 10.0835C2.11328 12.529 3.82373 14.07 6.17141 14.07C6.97633 14.07 7.68064 13.9025 8.38494 13.534C8.04956 13.132 7.78125 12.73 7.58002 12.2945ZM12.3089 5.9965C14.6231 5.9965 16.3 7.638 16.3 10.0165C16.3 12.395 14.6231 14.003 12.3089 14.003C10.0283 14.003 8.3514 12.3615 8.3514 10.0165C8.31786 7.638 9.99478 5.9965 12.3089 5.9965ZM10.0619 10.0165C10.0619 8.4755 11.0009 7.4705 12.2754 7.4705C13.5834 7.4705 14.5224 8.442 14.5224 10.0165C14.5224 11.5575 13.6169 12.529 12.2754 12.529C11.0009 12.529 10.0619 11.5575 10.0619 10.0165ZM17.3732 13.8355H19.0837V6.164H17.3732V13.8355ZM20.5929 6.6665C21.6661 6.2645 23.0076 5.9965 24.1144 5.9965C26.0932 5.9965 27.3341 6.7335 27.3341 8.911V13.8355H25.6236V9.045C25.6236 7.9395 24.9193 7.5375 23.9802 7.5375C23.3766 7.5375 22.7729 7.638 22.3033 7.772V13.8355H20.5929V6.6665ZM30.5202 12.395C30.8556 12.4955 31.2916 12.5625 31.7276 12.5625C33.3039 12.5625 34.4442 11.6915 34.4442 9.916C34.4442 8.442 33.371 7.5375 32.063 7.5375C31.3922 7.5375 30.8556 7.705 30.5202 7.906V12.395ZM39.6762 7.4705C40.5146 7.4705 41.1518 7.839 41.1518 8.6765V9.313H40.3134C38.0999 9.313 36.7583 10.0835 36.7583 11.6245C36.7583 13.3665 38.234 13.9695 40.2128 13.9695C41.0848 13.9695 42.1245 13.8355 42.8623 13.668V8.6095C42.8623 6.7 41.6549 5.9965 39.978 5.9965C39.0054 5.9965 38.1669 6.231 37.4626 6.633V8.107C38.0663 7.7385 38.7706 7.4705 39.6762 7.4705ZM41.1518 10.4855H40.414C39.2066 10.4855 38.4352 10.8205 38.4352 11.6245C38.4352 12.4285 39.1731 12.73 40.2128 12.73C40.4811 12.73 40.85 12.6965 41.1518 12.6295V10.4855ZM46.4174 12.6295C45.646 12.6295 44.774 12.2945 44.0697 11.7585V13.4C44.6398 13.7685 45.5454 14.0365 46.4509 14.0365C48.1278 14.0365 49.3687 13.2995 49.3687 11.6915C49.3687 10.318 48.5974 9.648 46.8534 9.2795C45.9814 9.045 45.646 8.777 45.646 8.2745C45.646 7.772 46.0484 7.4035 46.7863 7.4035C47.5912 7.4035 48.262 7.705 48.9327 8.174V6.5995C48.2955 6.1975 47.5912 5.9965 46.7192 5.9965C45.1429 5.9965 43.9691 6.767 43.9691 8.308C43.9691 9.648 44.6398 10.2845 46.2497 10.653C47.2558 10.921 47.6918 11.122 47.6918 11.7585C47.6918 12.3615 47.1887 12.6295 46.4174 12.6295ZM51.7164 10.385V10.4185C51.817 11.792 52.9909 12.529 54.1982 12.529C55.2715 12.529 56.0093 12.2945 56.7807 11.792V13.2995C56.0764 13.7685 55.0702 14.003 54.0641 14.003C51.6493 14.003 50.0395 12.4955 50.0395 10.05C50.0395 7.6045 51.6493 5.9965 53.7622 5.9965C56.0093 5.9965 57.0825 7.437 57.0825 9.514V10.385H51.7164ZM53.7287 7.437C54.8355 7.437 55.4392 8.107 55.4727 9.2795H51.7835C52.0183 8.1405 52.7226 7.437 53.7287 7.437Z" fill="#CECECE"/>
</svg>
