<svg width="60" height="7" viewBox="0 0 60 7" fill="none" xmlns="http://www.w3.org/2000/svg">
<path d="M17.4317 2.00649V5.06806H18.195C18.3899 5.06517 18.5821 5.02324 18.7604 4.94474C18.9388 4.86624 19.0995 4.75278 19.2332 4.61107C19.5076 4.32054 19.6578 3.93434 19.6517 3.53475C19.6575 3.33627 19.624 3.13859 19.5532 2.95308C19.4824 2.76757 19.3757 2.59788 19.2391 2.45376C19.1048 2.31184 18.9429 2.19892 18.7634 2.12193C18.5838 2.04494 18.3904 2.00552 18.195 2.0061H17.4321L17.4317 2.00649ZM18.195 1.04656C19.6178 1.04656 20.6941 2.14896 20.6941 3.53475C20.6941 4.92053 19.6178 6.02916 18.195 6.02916H16.5115C16.4954 6.02896 16.4796 6.02559 16.4648 6.01926C16.4501 6.01293 16.4367 6.00376 16.4255 5.99226C16.4143 5.98077 16.4055 5.96718 16.3995 5.95227C16.3936 5.93736 16.3906 5.92142 16.3908 5.90537V1.17541C16.3908 1.1069 16.4449 1.05123 16.5115 1.05123L18.195 1.04656ZM24.3614 5.17472C25.0076 5.17667 25.5911 4.77923 25.8398 4.16769C25.9617 3.8689 25.9942 3.54118 25.9336 3.22426C25.8729 2.90733 25.7216 2.61481 25.4981 2.38213C25.2784 2.15328 24.9945 1.99645 24.6838 1.93237C24.3731 1.86829 24.0503 1.89997 23.758 2.02323C23.1609 2.27547 22.7709 2.87222 22.7697 3.53475C22.7697 4.43784 23.4809 5.17044 24.3614 5.17472ZM24.3618 0.933676C25.8593 0.933676 27.0041 2.11393 27.0041 3.53475C27.0041 4.95557 25.8593 6.13582 24.3614 6.13582C22.8639 6.13582 21.7288 4.9614 21.7288 3.53475C21.7288 2.10809 22.874 0.933676 24.3618 0.933676ZM30.6418 5.17472C31.5227 5.17239 32.2355 4.43901 32.2347 3.53592C32.2335 2.63204 31.5192 1.90022 30.6387 1.89983C29.7574 1.89983 29.0427 2.63126 29.0415 3.53475C29.0415 3.96995 29.2101 4.38724 29.5102 4.69476C29.6571 4.84631 29.8329 4.96687 30.0272 5.04931C30.2215 5.13175 30.4307 5.17439 30.6418 5.17472ZM30.6414 0.933676C32.1343 0.933676 33.2791 2.10809 33.2791 3.53475C33.2791 4.9614 32.1296 6.13582 30.6414 6.13582C29.1536 6.13582 27.9991 4.9614 27.9991 3.53475C27.9991 2.10809 29.1439 0.933676 30.6414 0.933676ZM36.7708 2.00649H35.6945V3.32415H36.7708C36.8558 3.32792 36.9407 3.31422 37.0203 3.28389C37.0998 3.25356 37.1723 3.20725 37.2332 3.14782C37.3578 3.02715 37.4287 2.85976 37.4302 2.68381C37.4333 2.59455 37.4184 2.50557 37.3863 2.42223C37.3542 2.33888 37.3056 2.26288 37.2434 2.19879C37.1823 2.13572 37.1087 2.08613 37.0273 2.05321C36.9459 2.02029 36.8585 2.00478 36.7708 2.00766V2.00649ZM34.6532 1.17541C34.6532 1.1069 34.7077 1.05123 34.7742 1.05123H36.8008C37.7669 1.05123 38.466 1.77721 38.466 2.68887C38.4734 3.30547 38.1367 3.87185 37.5991 4.14784L38.5338 5.84231C38.5467 5.86179 38.554 5.88446 38.5548 5.90783C38.5556 5.93119 38.55 5.95432 38.5384 5.97466C38.5272 5.99468 38.5104 6.01105 38.4901 6.02181C38.4698 6.03258 38.4469 6.03729 38.424 6.03539H37.6038C37.5811 6.03571 37.5587 6.0296 37.5393 6.01775C37.5199 6.0059 37.5042 5.98881 37.494 5.96843L36.5933 4.29148H35.6906V5.90148C35.6908 5.91756 35.6879 5.93354 35.682 5.94849C35.6761 5.96345 35.6672 5.97708 35.656 5.98862C35.6448 6.00016 35.6314 6.00937 35.6167 6.01572C35.6019 6.02208 35.586 6.02545 35.5699 6.02566H34.7797C34.7636 6.02545 34.7477 6.02208 34.733 6.01572C34.7182 6.00937 34.7048 6.00016 34.6936 5.98862C34.6824 5.97708 34.6735 5.96345 34.6676 5.94849C34.6617 5.93354 34.6588 5.91756 34.659 5.90148L34.6536 1.1758L34.6532 1.17541ZM41.18 2.02985V5.09181H41.943C42.1377 5.08917 42.33 5.0475 42.5084 4.96928C42.6868 4.89105 42.8476 4.77785 42.9815 4.63637C43.2561 4.34618 43.4065 3.96027 43.4008 3.56083C43.407 3.3621 43.3738 3.16411 43.3032 2.97825C43.2326 2.79239 43.1259 2.62234 42.9893 2.47789C42.8548 2.33574 42.6926 2.22267 42.5127 2.14567C42.3328 2.06868 42.139 2.02939 41.9433 2.03024L41.18 2.02985ZM41.943 1.06875C43.3657 1.06875 44.442 2.17232 44.442 3.56083C44.442 4.94934 43.3657 6.0529 41.943 6.0529H40.2644C40.2484 6.0527 40.2325 6.04933 40.2177 6.04297C40.2029 6.03662 40.1895 6.02741 40.1783 6.01587C40.1671 6.00433 40.1583 5.9907 40.1524 5.97574C40.1464 5.96079 40.1435 5.94481 40.1438 5.92873V1.19916C40.1438 1.13026 40.1979 1.07459 40.2644 1.07459L41.943 1.06875ZM47.6169 2.28637L47.0264 3.92362H48.2062L47.6169 2.28637ZM46.6799 4.84891L46.2934 5.93885C46.2856 5.96449 46.2696 5.98683 46.2477 6.00234C46.2259 6.01784 46.1995 6.02563 46.1727 6.02449H45.3342C45.3129 6.02648 45.2914 6.02269 45.272 6.01351C45.2526 6.00433 45.2361 5.99011 45.2241 5.97233C45.2118 5.95434 45.2044 5.9335 45.2026 5.91181C45.2007 5.89013 45.2045 5.86834 45.2136 5.84854L47.0252 1.12325C47.0337 1.09833 47.05 1.07686 47.0718 1.0621C47.0936 1.04734 47.1196 1.04011 47.1459 1.0415H48.084C48.1104 1.04002 48.1365 1.04721 48.1583 1.06198C48.1802 1.07674 48.1966 1.09826 48.2051 1.12325L50.0167 5.84854C50.0257 5.86837 50.0294 5.89018 50.0275 5.91186C50.0256 5.93355 50.0181 5.95437 50.0058 5.97233C49.9938 5.99003 49.9772 6.00418 49.9578 6.01329C49.9384 6.0224 49.917 6.02613 49.8957 6.0241H49.0576C49.0308 6.02525 49.0044 6.01745 48.9826 6.00195C48.9607 5.98644 48.9446 5.96411 48.9369 5.93846L48.5503 4.84852H46.6799V4.84891ZM50.9887 2.39264C50.9887 1.61022 51.6481 0.933676 52.6894 0.933676C53.2501 0.921155 53.7931 1.13091 54.1998 1.51719C54.2122 1.5289 54.222 1.54302 54.2288 1.55868C54.2355 1.57435 54.239 1.59122 54.239 1.60827C54.239 1.62533 54.2355 1.6422 54.2288 1.65786C54.222 1.67353 54.2122 1.68765 54.1998 1.69936L53.7354 2.17232C53.7243 2.18381 53.7109 2.19295 53.6962 2.19919C53.6815 2.20543 53.6657 2.20864 53.6497 2.20864C53.6337 2.20864 53.6179 2.20543 53.6032 2.19919C53.5885 2.19295 53.5752 2.18381 53.5641 2.17232C53.3454 1.9673 53.0581 1.85114 52.7583 1.8465C52.3418 1.8465 52.0339 2.09447 52.0339 2.38058C52.0339 3.30547 54.4952 2.77179 54.4952 4.55151C54.494 5.45344 53.8296 6.13582 52.6548 6.13582C52.3285 6.13916 52.005 6.07685 51.7033 5.9526C51.4016 5.82835 51.128 5.6447 50.8988 5.41256C50.8864 5.40085 50.8765 5.38673 50.8698 5.37107C50.863 5.3554 50.8596 5.33853 50.8596 5.32148C50.8596 5.30442 50.863 5.28755 50.8698 5.27188C50.8765 5.25622 50.8864 5.2421 50.8988 5.23039L51.348 4.7695C51.3592 4.75745 51.3727 4.74783 51.3878 4.74126C51.4029 4.73469 51.4191 4.7313 51.4356 4.7313C51.452 4.7313 51.4683 4.73469 51.4834 4.74126C51.4984 4.74783 51.512 4.75745 51.5232 4.7695C51.8059 5.04974 52.1866 5.2089 52.5847 5.21326C53.1051 5.21326 53.4481 4.92832 53.4481 4.57136C53.4481 3.64608 50.9879 4.18015 50.9879 2.40004M58.9585 1.16918V3.03921H56.8752V1.16918C56.8754 1.15313 56.8724 1.1372 56.8665 1.12229C56.8605 1.10738 56.8517 1.09379 56.8405 1.08229C56.8293 1.0708 56.8159 1.06162 56.8012 1.05529C56.7864 1.04896 56.7706 1.0456 56.7545 1.0454H55.9643C55.9482 1.0456 55.9324 1.04896 55.9176 1.05529C55.9029 1.06162 55.8895 1.0708 55.8783 1.08229C55.8671 1.09379 55.8583 1.10738 55.8523 1.12229C55.8464 1.1372 55.8434 1.15313 55.8436 1.16918V5.8937C55.8436 5.96221 55.8981 6.01787 55.9643 6.01787H56.7545C56.8207 6.01787 56.8752 5.96221 56.8752 5.8937V3.99408H58.957V5.8937C58.957 5.96221 59.0115 6.01787 59.0776 6.01787H59.8679C59.9344 6.01787 59.9885 5.96221 59.9885 5.8937V1.16918C59.9887 1.15313 59.9858 1.1372 59.9798 1.12229C59.9739 1.10738 59.965 1.09379 59.9538 1.08229C59.9426 1.0708 59.9293 1.06162 59.9145 1.05529C59.8998 1.04896 59.8839 1.0456 59.8679 1.0454H59.0776C59.0455 1.04621 59.015 1.05966 58.9927 1.08283C58.9704 1.106 58.9581 1.13703 58.9585 1.16918ZM11.9551 1.67601C11.407 0.660023 10.3346 0.0274668 9.16838 0.0313594H0.344509C0.284919 0.0316013 0.226718 0.0493728 0.177157 0.0824595C0.127596 0.115546 0.0888668 0.162485 0.0657951 0.217428C0.0430607 0.272019 0.0371396 0.332153 0.0487903 0.390129C0.060441 0.448106 0.0891331 0.501284 0.131192 0.542854L2.05338 2.45025C2.2231 2.6192 2.45433 2.71379 2.69489 2.71379H8.91535C9.35873 2.70912 9.72113 3.06023 9.7258 3.49738C9.73047 3.93452 9.37508 4.29265 8.9317 4.29693H4.64317C4.58353 4.29695 4.52522 4.31454 4.47552 4.34749C4.42582 4.38044 4.38692 4.4273 4.36367 4.48222C4.34072 4.53687 4.33465 4.59714 4.34623 4.65527C4.35782 4.71341 4.38653 4.76675 4.42868 4.80842L6.35204 6.71738C6.52282 6.88624 6.75338 6.98081 6.99355 6.98052H8.93326C11.4569 6.98052 13.365 4.31795 11.9551 1.67484" fill="#CECECE"/>
</svg>
