<svg width="60" height="12" viewBox="0 0 60 12" fill="none" xmlns="http://www.w3.org/2000/svg">
<g clip-path="url(#clip0_1009_33)">
<path d="M6.96296 2.22094L3.48148 4.44188L6.96296 6.66282L3.48148 8.88376L0 6.64431L3.48148 4.42337L0 2.22094L3.48148 0L6.96296 2.22094ZM3.46296 9.58706L6.94444 7.36612L10.4259 9.58706L6.94444 11.808L3.46296 9.58706ZM6.96296 6.64431L10.4444 4.42337L6.96296 2.22094L10.4259 0L13.9074 2.22094L10.4259 4.44188L13.9074 6.66282L10.4259 8.88376L6.96296 6.64431Z" fill="#CECECE"/>
<path d="M16.6289 2.22094H19.4437C21.24 2.22094 22.7215 3.25738 22.7215 5.62638V6.1261C22.7215 8.51361 21.3326 9.58706 19.4993 9.58706H16.6289V2.22094ZM18.203 3.55351V8.23599H19.4067C20.4252 8.23599 21.1104 7.56971 21.1104 6.08908V5.70042C21.1104 4.21979 20.3882 3.55351 19.3511 3.55351H18.203ZM23.5548 3.62754H24.8141L25.0178 5.01563C25.2585 4.07173 25.8696 3.57202 26.9808 3.57202H27.3696V5.16369H26.7215C25.4437 5.16369 25.1289 5.60788 25.1289 6.86641V9.60557H23.5734V3.62754H23.5548ZM27.6845 6.73686V6.57028C27.6845 4.57144 28.9622 3.47948 30.703 3.47948C32.4808 3.47948 33.7215 4.57144 33.7215 6.57028V6.73686C33.7215 8.69869 32.5178 9.75363 30.703 9.75363C28.7771 9.73512 27.6845 8.69869 27.6845 6.73686ZM32.1289 6.71835V6.57028C32.1289 5.45981 31.5733 4.79353 30.6845 4.79353C29.8141 4.79353 29.24 5.40429 29.24 6.57028V6.71835C29.24 7.7918 29.7956 8.40256 30.6845 8.40256C31.5733 8.38405 32.1289 7.7918 32.1289 6.71835ZM34.5363 3.62754H35.8326L35.9808 4.75652C36.2956 3.9977 36.9622 3.47948 37.9437 3.47948C39.4622 3.47948 40.4622 4.57144 40.4622 6.58879V6.75536C40.4622 8.71719 39.3511 9.75363 37.9437 9.75363C36.9993 9.75363 36.3511 9.32795 36.0363 8.64316V11.6599H34.5178L34.5363 3.62754ZM38.8882 6.71835V6.58879C38.8882 5.40429 38.2771 4.81204 37.4622 4.81204C36.5919 4.81204 36.0178 5.47832 36.0178 6.58879V6.69984C36.0178 7.75479 36.5733 8.42107 37.4437 8.42107C38.3326 8.40256 38.8882 7.82882 38.8882 6.71835ZM42.7585 8.4951L42.6289 9.58706H41.2956V1.62869H42.8141V4.68249C43.1474 3.90516 43.8141 3.47948 44.7585 3.47948C46.1845 3.49798 47.24 4.4789 47.24 6.45924V6.64432C47.24 8.62465 46.24 9.75363 44.7215 9.75363C43.7215 9.73512 43.0733 9.27243 42.7585 8.4951ZM45.6474 6.64432V6.49625C45.6474 5.40429 45.0548 4.79353 44.2215 4.79353C43.3696 4.79353 42.7771 5.47832 42.7771 6.51476V6.64432C42.7771 7.75479 43.3511 8.40256 44.203 8.40256C45.1104 8.40256 45.6474 7.82882 45.6474 6.64432ZM47.9067 6.73686V6.57028C47.9067 4.57144 49.1845 3.47948 50.9252 3.47948C52.703 3.47948 53.9437 4.57144 53.9437 6.57028V6.73686C53.9437 8.69869 52.7215 9.75363 50.9252 9.75363C48.9993 9.73512 47.9067 8.69869 47.9067 6.73686ZM52.3696 6.71835V6.57028C52.3696 5.45981 51.8141 4.79353 50.9252 4.79353C50.0548 4.79353 49.4808 5.40429 49.4808 6.57028V6.71835C49.4808 7.7918 50.0363 8.40256 50.9252 8.40256C51.8141 8.38405 52.3696 7.7918 52.3696 6.71835ZM55.9808 6.49625L53.8882 3.62754H55.6845L56.8882 5.4228L58.1104 3.62754H59.8882L57.7585 6.47775L59.9993 9.58706H58.24L56.8696 7.60672L55.5363 9.58706H53.703L55.9808 6.49625Z" fill="#CECECE"/>
</g>
<defs>
<clipPath id="clip0_1009_33">
<rect width="60" height="11.808" fill="white"/>
</clipPath>
</defs>
</svg>
