<svg width="60" height="22" viewBox="0 0 60 22" fill="none" xmlns="http://www.w3.org/2000/svg">
<g clip-path="url(#clip0_1010_60)">
<path d="M45.8751 6.87256H44.8516L44.8578 14.4817H48.9893V13.5391H45.8751V6.87256Z" fill="#CECECE"/>
<path d="M52.9263 13.1397C52.6705 13.4081 52.2398 13.6765 51.6594 13.6765C50.8793 13.6765 50.5673 13.2957 50.5673 12.7964C50.5673 12.0411 51.0915 11.679 52.2024 11.679C52.4083 11.679 52.7454 11.704 52.9201 11.7352V13.1397H52.9263ZM51.8716 8.53299C51.0478 8.53299 50.2926 8.82637 49.6998 9.31325L50.0617 9.93747C50.4799 9.69402 50.9916 9.45058 51.7218 9.45058C52.5581 9.45058 52.9326 9.88129 52.9326 10.5991V10.9737C52.7703 10.9362 52.4333 10.9175 52.2274 10.9175C50.4362 10.9175 49.5312 11.5417 49.5312 12.8588C49.5312 14.0323 50.249 14.6253 51.3411 14.6253C52.0776 14.6253 52.7828 14.2882 53.0262 13.7452L53.2134 14.488H53.9249V10.5866C53.9249 9.35695 53.3882 8.53299 51.8716 8.53299Z" fill="#CECECE"/>
<path d="M57.2206 13.7139C56.8399 13.7139 56.5029 13.6702 56.247 13.5516V10.0248C56.5965 9.73145 57.0271 9.52546 57.5701 9.52546C58.5561 9.52546 58.9431 10.2246 58.9431 11.3482C58.9431 12.9586 58.3252 13.7139 57.2206 13.7139ZM57.6512 8.53296C56.74 8.53296 56.247 9.15717 56.247 9.15717V8.17092L56.2407 6.87256H55.2422L55.2484 14.2944C55.7477 14.5004 56.4342 14.619 57.1769 14.619C59.0804 14.619 59.9978 13.4018 59.9978 11.2982C59.9978 9.63157 59.149 8.53296 57.6512 8.53296Z" fill="#CECECE"/>
<path d="M34.7658 7.69653C35.6708 7.69653 36.2512 7.99615 36.6381 8.30202L37.075 7.54048C36.4759 7.01614 35.6708 6.729 34.8158 6.729C32.6439 6.729 31.1211 8.05233 31.1211 10.724C31.1211 13.5204 32.7625 14.6128 34.641 14.6128C35.5834 14.6128 36.3822 14.3943 36.9065 14.1696L36.8878 11.1796V10.2371H34.098V11.1796H35.8767L35.8954 13.4518C35.6645 13.5704 35.2589 13.6578 34.7097 13.6578C33.1993 13.6578 32.1883 12.709 32.1883 10.7052C32.1883 8.68279 33.2368 7.69653 34.7658 7.69653Z" fill="#CECECE"/>
<path d="M41.9556 6.87256H40.957L40.9633 8.15219V12.5591C40.9633 13.7888 41.5 14.6128 43.0166 14.6128C43.2287 14.6128 43.4347 14.5941 43.6344 14.5566V13.6577C43.4909 13.6827 43.3348 13.6952 43.1726 13.6952C42.3363 13.6952 41.9681 13.2645 41.9681 12.5466V9.50673H43.6282V8.67029H41.9556V6.87256Z" fill="#CECECE"/>
<path d="M38.4238 14.4755H39.4224V8.67029H38.4238V14.4755Z" fill="#CECECE"/>
<path d="M38.4238 7.8713H39.4224V6.87256H38.4238V7.8713Z" fill="#CECECE"/>
<path d="M11.5739 21.2919L15.8178 8.22711H7.33008L11.5739 21.2919Z" fill="#A8A8A8"/>
<path d="M11.5743 21.2919L7.33047 8.22711H1.38281L11.5743 21.2919Z" fill="#CECECE"/>
<path d="M1.38206 8.22711L0.0901797 12.1971C-0.028399 12.5591 0.102662 12.9586 0.40847 13.1771L11.5736 21.2919L1.38206 8.22711Z" fill="#E7E7E7"/>
<path d="M1.38281 8.2271H7.33047L4.77167 0.355786C4.64061 -0.0499513 4.06644 -0.0499513 3.93538 0.355786L1.38281 8.2271Z" fill="#A8A8A8"/>
<path d="M11.5742 21.2919L15.8181 8.22711H21.7657L11.5742 21.2919Z" fill="#CECECE"/>
<path d="M21.7657 8.22711L23.0576 12.1971C23.1762 12.5591 23.0451 12.9586 22.7393 13.1771L11.5742 21.2919L21.7657 8.22711Z" fill="#E7E7E7"/>
<path d="M21.766 8.2271H15.8184L18.3772 0.355786C18.5082 -0.0499513 19.0824 -0.0499513 19.2135 0.355786L21.766 8.2271Z" fill="#A8A8A8"/>
</g>
<defs>
<clipPath id="clip0_1010_60">
<rect width="60" height="21.2919" fill="white"/>
</clipPath>
</defs>
</svg>
